<svg width="20" height="20" viewBox="0 0 20 20" fill="none" xmlns="http://www.w3.org/2000/svg">
<g clip-path="url(#clip0)">
<path d="M10.9374 10.625H5.31241C5.14054 10.625 4.99991 10.7656 4.99991 10.9375V11.5625C4.99991 11.7344 5.14054 11.875 5.31241 11.875H10.9374C11.1093 11.875 11.2499 11.7344 11.2499 11.5625V10.9375C11.2499 10.7656 11.1093 10.625 10.9374 10.625ZM14.6874 6.875H5.31241C5.14054 6.875 4.99991 7.01562 4.99991 7.1875V7.8125C4.99991 7.98438 5.14054 8.125 5.31241 8.125H14.6874C14.8593 8.125 14.9999 7.98438 14.9999 7.8125V7.1875C14.9999 7.01562 14.8593 6.875 14.6874 6.875ZM9.99991 1.25C4.47647 1.25 -9.30375e-05 4.88672 -9.30375e-05 9.375C-9.30375e-05 11.2344 0.777251 12.9375 2.06631 14.3086C1.48428 15.8477 0.273345 17.1523 0.253813 17.168C-0.00399929 17.4414 -0.0743118 17.8398 0.0741258 18.1836C0.222563 18.5273 0.562407 18.75 0.937407 18.75C3.33975 18.75 5.23429 17.7461 6.37101 16.9414C7.49991 17.2969 8.71866 17.5 9.99991 17.5C15.5234 17.5 19.9999 13.8633 19.9999 9.375C19.9999 4.88672 15.5234 1.25 9.99991 1.25ZM9.99991 16.25C8.89444 16.25 7.80069 16.082 6.74991 15.75L6.15616 15.5625L5.64835 15.9219C4.74991 16.5586 3.36319 17.3008 1.64053 17.4688C2.10928 16.8789 2.8046 15.8906 3.23428 14.75L3.51163 14.0195L2.97647 13.4492C1.84756 12.2539 1.24991 10.8438 1.24991 9.375C1.24991 5.58594 5.17569 2.5 9.99991 2.5C14.8241 2.5 18.7499 5.58594 18.7499 9.375C18.7499 13.1641 14.8241 16.25 9.99991 16.25Z" fill="#6F7070"/>
</g>
<defs>
<clipPath id="clip0">
<rect width="20" height="20" fill="white"/>
</clipPath>
</defs>
</svg>
