<svg width="20" height="20" viewBox="0 0 20 20" fill="none" xmlns="http://www.w3.org/2000/svg">
<path d="M19.7321 2.02247H0.267857C0.196817 2.02247 0.128687 1.98696 0.0784535 1.92374C0.0282206 1.86053 0 1.77479 0 1.68539L0 0.337079C0 0.24768 0.0282206 0.161943 0.0784535 0.0987282C0.128687 0.0355137 0.196817 0 0.267857 0H19.7321C19.8032 0 19.8713 0.0355137 19.9215 0.0987282C19.9718 0.161943 20 0.24768 20 0.337079V1.68539C20 1.77479 19.9718 1.86053 19.9215 1.92374C19.8713 1.98696 19.8032 2.02247 19.7321 2.02247ZM19.7321 11.0112H0.267857C0.196817 11.0112 0.128687 10.9757 0.0784535 10.9125C0.0282206 10.8493 0 10.7636 0 10.6742L0 9.32584C0 9.23644 0.0282206 9.15071 0.0784535 9.08749C0.128687 9.02428 0.196817 8.98876 0.267857 8.98876H19.7321C19.8032 8.98876 19.8713 9.02428 19.9215 9.08749C19.9718 9.15071 20 9.23644 20 9.32584V10.6742C20 10.7636 19.9718 10.8493 19.9215 10.9125C19.8713 10.9757 19.8032 11.0112 19.7321 11.0112ZM19.7321 20H0.267857C0.196817 20 0.128687 19.9645 0.0784535 19.9013C0.0282206 19.8381 0 19.7523 0 19.6629L0 18.3146C0 18.2252 0.0282206 18.1395 0.0784535 18.0763C0.128687 18.013 0.196817 17.9775 0.267857 17.9775H19.7321C19.8032 17.9775 19.8713 18.013 19.9215 18.0763C19.9718 18.1395 20 18.2252 20 18.3146V19.6629C20 19.7523 19.9718 19.8381 19.9215 19.9013C19.8713 19.9645 19.8032 20 19.7321 20Z" fill="#868687"/>
</svg>
